<svg xmlns="http://www.w3.org/2000/svg" version="1.1" viewBox="0 0 1416.5 975.8">
  <path d="M721.4,975.8c-4.2-.3-8.4-.8-12.6-1.6-4.7-1-6-5.4-13.1-5.2s-7.9-2.1-11.2-3.6c-2.9-1.4-6.1-2.2-9.3-2.4-2.8-.2-5.7-.8-8.3-1.7-3-1-9.7-1-10.7-1.6-.5-.3-3.2-.2-6.7-.2s-7.6,0-10.9-.2c-6.7-.5-10.5-4.5-12.3-6.1s-8.7-1.4-15.9-.9-15.8-1.2-23.4-2.1-18.4.5-25.8,1.4-10.3-4.8-15.4-7.1-10.9-.3-16.1-.3-18.2-2.4-22.3-3.5-10.9-6.1-15.8-11.1-8-4.2-10.9-9.7-8.8-6.7-13.3-10.7-12.5-7.8-18.3-10.7-14.2-13-20.8-17.1-8.5-4.8-13.3-5.2-9.9-1-13.8-3.3-6.4-4.3-12.6-5.7-15.8-10.9-22.4-15.4-22.1-10-27.6-13-17.7-9.7-23.6-13.8-26.1-8.6-35-9.2-24.4-1.4-29.5-3.5-20.6-8.1-24.5-10.7-13.5-9-19.8-12.2-14.5-5.1-22.1-6.2-12.7-9.9-15.9-14.5-8-6.2-11-9.2-12.6-7.8-14.4-12-7.3-13.4-11-19.4-12.7-20.1-16.3-26.8-6.1-16.4-8.1-21.7-7.1-16.1-7.9-21.2-4.1-22.6-4.5-27-4.3-20.1-5.5-25.6-2.2-19.6-3.2-23.8-3.7-25.1-4.4-29.1-5.6-38.8-7.4-43.4-.8-14.3-.2-21.2-.9-14.1-3.4-17.5-4.1-9.5-5.3-13.4-3.8-22.4-4.7-25.8-7.5-11.3-9.1-16.2-1.3-12-1.6-15.7-4.3-11.8-6.2-16.1-7.3-11.1-8-13.2-8.4-10.1-12.8-16.1-8.2-18.7-9-23.3-.4-16.6-1-20.8-7.6-7.8-9.2-11.1-.9-20.5,0-27.7c1-7.1-1.6-21.9-2.6-26.5s-1.1-25.2-.9-28.1c.2-6.5.1-12.9-.4-19.4-.5-3.7,1.3-34.8,1.2-37.8s.6-15.7.8-19.4,2.4-26.5,2.8-30,3.5-20.3,4.2-24.2,4.2-17.8,4.7-21.9,2-18.9,2.7-21.7c.6-2.8,4.7-18.2,7.1-25.6,1.5-5.5,2.7-11.1,3.6-16.8h1389.4v850.5c-3.4,1.9-7,3.5-10.6,4.8-5.3,1.8-14.7,3.6-18.8,4.4s-26.9,8.1-32.8,12.5-19.6,4.3-25.2,4.1-13.6,4.8-17.5,8.4-16.1,3.9-21.2,4.9-14.4,4.9-18.4,7.4-13.8,4.1-17.7,4.6-9.9.2-16.8,3.9-20.9,4.3-26.2,4.6-8.5.7-12.9,2.1c-6.9,2-14,3.1-21.1,3.5-9.2,0-18.3-.8-27.4-2.1-5.1-1-7.8-5.1-14.9-4.9s-8.6-2-12.4-3.5c-3.2-1.3-6.7-2.1-10.1-2.3-3-.2-6-.7-8.9-1.6-3.4-1-10-1-11.2-1.5-.6-.2-3.3-.2-6.7-.2s-7.6,0-11-.2c0,0-82.1,11.3-88.1,13.2s-16,3.8-20.5,4.7-29.9,8.5-37.4,13.2-21.1,4.5-26.7,4.3-15.4,5-20.6,8.8-17.5,4.2-23,5.2-16.2,5.2-21.1,7.8-15.3,4.3-19.4,4.8-10,.2-18.2,4.2-22.4,4.5-27.9,4.8c-4.6.1-9.3.9-13.7,2.2-4.8,1.4-9.8,2.3-14.8,3h-21.6Z"/>
</svg>