<svg xmlns="http://www.w3.org/2000/svg" version="1.1" viewBox="0 0 1921 906.2">
  <path d="M.5-822.9h1920V102.5c-11.4,29.7-21.6,52.8-29,57.1-14.3,8.4-26.6,7.7-38.3,7.1-7.8-.4-15.3-.9-23,1.3-19.2,5.6-52.1,12.6-77.1,28-15.6,9.6-25.3,8.3-36.8,7-6.9-.8-14.5-1.6-24.4,0-26.4,4.2-93.4,21-108.4,26.6s-70.7,26.6-80.9,39.2c-10.2,12.6-53.4,35-73.3,35s-82.3,9.8-97.1,12.6-54.5,35-74.2,49-82.9,37.8-99,43.4-45.1,1.4-55.9,5.6-72.9,28-88.4,42-63.4,43.4-86.8,50.4c-23.5,7-71.1-2.8-96,11.2-24.9,14-148.6,90.4-165.1,102.8s-60.7,33.6-76.2,43.5-32.4,11.8-50.7,14.3-40.3,27.4-50.7,38.6-48,24.9-67.2,33.6c-14,6.5-29.4,9.3-44.7,8.1-9.7-.6-18-2.5-30.3,1.3s-20.3,11.8-35.1,26.7-56.3,23-82.1,33-65.5,44.2-79.2,55.4c-10.5,8.6-104.9,21-150.1,30.3V-822.9Z"/>
</svg>